<svg xmlns="http://www.w3.org/2000/svg" xmlns:xlink="http://www.w3.org/1999/xlink" width="43" height="41" xmlns:v="https://vecta.io/nano"><style><![CDATA[.B{stroke-width:.25}.C{fill:#b2c3a5}.D{fill:#79896b}.E{stroke:#b2c3a5}.F{stroke:#79896b}.G{fill:#987671}]]></style><defs><path id="A" d="M0 0h41.13v40.196H0z"/><path id="B" d="M.031.098h23.89v11.005H.031z"/><path id="C" d="M8.199 12.987c.436-2.205 1.825-3.353 3.913-4.05 2.577-.859 6.847.625 6.75 3.747-.005.179.274.179.28 0 .086-2.745-2.731-4.011-5.135-4.243-2.916-.283-5.535 1.727-6.078 4.474-.034.175.235.249.27.074"/><path id="D" d="M9.796 2.804l-3.164.014-1.989 2.404-1.136.118-.331 1.032-1.794 3.543.828 4.106 2.699-2.058 2.796-2.649 1.533-3.336z"/><path id="E" d="M3.874 7.102l-.348.987-1.888 3.386 1.306.378 2.381-1.625L7.446 6.79l-.283-2.099-1.986 2.335z"/><path id="F" d="M2.645 12.079l2.317-1.902 2.226-4.181 2.445 1.136"/></defs><g fill="none" fill-rule="evenodd"><g fill="#b1e0d5"><use xlink:href="#C"/><use xlink:href="#C"/></g><use xlink:href="#C" class="C"/><path d="M8.199 12.987c.436-2.205 1.825-3.353 3.913-4.05 2.577-.859 6.847.625 6.75 3.747-.005.179.274.179.28 0 .086-2.745-2.731-4.011-5.135-4.243-2.916-.283-5.535 1.727-6.078 4.474-.034.175.235.249.27.074z" stroke="#91a381" class="B"/><g transform="translate(.448)"><mask id="G" fill="#fff"><use xlink:href="#A"/></mask><path d="M41.13 20.098c0 11.099-9.207 20.098-20.565 20.098S0 31.197 0 20.098 9.207 0 20.565 0 41.13 8.998 41.13 20.098" mask="url(#G)" class="C"/></g><path d="M21.068 25.297c-.48-.201-.616-.844-.552-1.374s.257-1.058.168-1.584-.653-1.017-1.105-.757c.454-1.433-.368-3.162-1.744-3.669s-3.073.294-3.601 1.699c-.183.486-.238 1.018-.448 1.493s-.648.907-1.151.857c-.608 1.174-1.329 2.801-1.573 4.108-.238 1.277-.476 2.594-.22 3.868.308 1.531 1.287 2.809 2.156 4.09s1.685 2.737 1.586 4.298c-.366-1.101.983-2.146 2.062-2.486s2.235-.12 3.362-.053 2.382-.084 3.136-.95c.314-.361.519-.826.889-1.124.399-.322.926-.401 1.404-.573 1.632-.588 2.645-2.231 3.53-3.763.879-1.52 1.788-3.306 1.217-4.975-.604-1.766-3.01-2.543-4.483-1.447-.939-.292-2.182-.485-3.161-.547-.822-.052-1.841.111-2.121.911-.196.561.909 1.448.648 1.98" fill="#d5e3cc"/><path d="M11.041 30.664c-.432-1.48.137-3.05.699-4.484l.388-.991c.458-1.169-.79-2.269-1.854-1.634-.86.513-1.784.866-2.79.952-1.764.15-3.743-.518-5.166.617 1.537 6.47 6.094 11.73 12.064 14.137.274-1.79-.091-3.689-1.093-5.188-.761-1.138-1.862-2.088-2.248-3.408" opacity=".407" class="G"/><g transform="translate(15.405 28.978)"><mask id="H" fill="#fff"><use xlink:href="#B"/></mask><path d="M6.218 11.104c7.65 0 14.301-4.181 17.703-10.336-.45-.268-.932-.479-1.446-.588-.892-.19-1.882-.056-2.607.488-1.029.773-1.452 2.272-2.672 2.704-1.564.553-3.419-1.035-4.862-.227-.772.432-1.13 1.438-1.973 1.714-.59.193-1.337-.006-1.783.418-.255.243-.319.616-.495.918-.323.553-.997.819-1.643.896s-1.302.005-1.948.077c-1.223.136-2.338.785-3.233 1.613C.807 9.2.408 9.666.031 10.15c1.95.616 4.028.953 6.187.953" opacity=".407" mask="url(#H)" class="G"/></g><g fill="#c8dcbe"><path d="M15.699 6.469c.117-.111.241-.158.384-.113l-.122-.387c-.027.059-.057.052-.102.029l.15.254-.001-.327-.06.186-.135-.017c.201.213.491-.156.288-.372-.116-.123-.247-.152-.381-.052-.159.117-.119.385-.119.583a.27.27 0 0 0 .15.254c.212.108.451-.022.562-.27.064-.144.007-.347-.122-.387a.69.69 0 0 0-.698.166c-.21.198-.007.655.206.455m2.51-4.2v.133c0 .535.935.535.935 0v-.133c0-.535-.935-.535-.935 0"/><path d="M16.807 6.543c.623 0 .623-.935 0-.935s-.623.935 0 .935m2.34 31.972c-.034.387.222.771.497.744s.492-.456.421-.833c-.088-.128-.248-.136-.341-.016l-.577.104z"/><path d="M19.616 39.261c-.123 0-.244-.074-.337-.208a.77.77 0 0 1-.132-.506l.102.018a.61.61 0 0 0 .104.393c.077.111.182.178.284.163.1-.009.199-.089.265-.214a.65.65 0 0 0 .067-.39c-.061-.07-.163-.072-.222.002l-.069-.103c.103-.126.278-.118.375.017l.013.03a.8.8 0 0 1-.08.525c-.086.16-.209.26-.341.272-.009.001-.019.001-.027.001m.928-1.299v-.208.208z"/></g><path d="M17.601 25.358c.381.191.617.578.906.892.784.848 1.98 1.159 3.12 1.33s2.325.251 3.351.778 1.856 1.666 1.597 2.793c-.168.731-.757 1.302-1.414 1.659s-1.392.538-2.102.772a14.36 14.36 0 0 0-6.749 4.744c.631-1.473-.461-3.051-1.114-4.515a8.62 8.62 0 0 1 .019-6.964c.217-.48.49-.952.908-1.271s1.009-.453 1.479-.217" fill="#e2e9ff"/><path d="M27.129.935c.738 1.385 1.407 2.821 1.458 4.343.058 1.746-.932 3.647-2.786 4.221-.464.144-.975.205-1.372.463s-.608.823-.258 1.13l1.782 1.352c-.811.249-1.601.691-1.964 1.383s-.139 1.655.634 1.986c.552.236 1.25.092 1.704-.274s.679-.918.709-1.463c.036-.672-.098-1.535.575-1.842.493-.225 1.123.076 1.381.512s.241.956.206 1.447-.076 1.005.141 1.458c.23.479.743.892.682 1.41-.055.466-.556.781-.771 1.209-.237.472-.092 1.042.226 1.475s.787.759 1.247 1.076c.662.456 1.565.928 2.269.525.803-.459.525-1.551.821-2.359.233-.638.905-1.13 1.652-1.211s1.532.252 1.932.82c.586-.483 1.543-.339 2.238.012s1.283.874 2.03 1.126c.271.091.549.139.83.152l.019-.672c0-8.661-6.495-15.968-15.385-18.281" fill="#dee1d0"/><path d="M31.296 1.87c.972.955 1.44 2.278 1.216 3.531-.243 1.361-1.22 2.789-.484 4.014.654 1.089 2.301 1.365 3.461 2.084 1.012.627 1.647 1.597 2.509 2.371s2.195 1.371 3.342.945c.086-.032.161-.074.239-.115-1.196-5.402-5.013-10.011-10.283-12.83" fill="#c8dcbe"/><path d="M33.365 29.15c.135-.624.786-.591 1.258-.424.376.133.768.328 1.156.23.604-.153.79-.881 1.221-1.317.46-.464 1.173-.567 1.803-.777s1.891-.984 1.839-1.624c-.969 4.355-5.299 8.324-9.8 9.348-.244-.564-.491-1.149-.481-1.761l.003-.072c.042-.711.844-1.082 1.499-.75.351.178.798.204 1.153.026.725-.365.969-1.379.538-2.055-.158-.248-.252-.54-.19-.825" opacity=".382" class="G"/><path d="M8.743 16.81c.722.11 1.45-.355 1.789-.991.242-.453.3-1.053-.033-1.447-.358-.424-1.055-.445-1.535-.16s-.77.801-.944 1.325c-.075.224-.131.468-.062.693.1.325.444.528.785.58M25.936 5.628c-.871-.136-1.794.469-2.057 1.349-.156.522-.015 1.213.478 1.394.422.154.871-.135 1.201-.451a5.87 5.87 0 0 0 .789-.93c.195-.285.37-.657.221-.97-.113-.238-.379-.353-.631-.392m-10.546 9.626c-.099-.28-.606-.315-.993-.291l-1.759.11c-.152.294.158.63.551.746s.832.071 1.25.025c.232-.025.471-.053.669-.147s.342-.274.282-.443m16.914 11.731c-.033.268-.117.551-.048.8.089.32.384.329.546.103s.225-.59.28-.93c.059-.369.118-.76.056-1.127s-.296-.683-.514-.566c-.183.098-.275.445-.294.763l-.025.958m2.732-6.197c-.044.449.451.845.834.668a.62.62 0 0 0-.105-.79c-.219-.176-.568-.118-.729.122m-26.039-.285c.198.098.454.08.624-.063a.49.49 0 0 0 .116-.6c-.14-.24-.519-.281-.723-.091a.56.56 0 0 0-.017.754" fill="#dee1d0"/><use xlink:href="#D" class="C"/><use xlink:href="#D" class="B F"/><use xlink:href="#E" class="D"/><use xlink:href="#E" class="B E"/><use xlink:href="#F" class="C"/><use xlink:href="#F" class="B F"/><path d="M5.08 11.059l-.865-1.543" class="C"/><path d="M5.08 11.059l-.865-1.543" class="B F"/><path d="M2.333 13.801l-.726-2.564" class="C"/><path d="M2.333 13.801l-.726-2.564" class="B F"/><path d="M21.187 11.416c.169.357.624.51 1.031.626.288.082.604.164.884.062.391-.142.539-.568.612-.945.063-.318.106-.648.024-.962s-.315-.613-.653-.711c-.569-.165-1.125.269-1.495.696-.308.354-.599.82-.402 1.235" class="D"/><path d="M21.187 11.416c.169.357.624.51 1.031.626.288.082.604.164.884.062.391-.142.539-.568.612-.945.063-.318.106-.648.024-.962s-.315-.613-.653-.711c-.569-.165-1.125.269-1.495.696-.308.354-.599.82-.402 1.235z" class="B E"/><path d="M12.69 7.933c.028.45.241.905.632 1.159.431.281 1.051.265 1.467-.036s.597-.866.429-1.337c-.139-.39-.489-.691-.889-.848-.449-.176-1.025-.161-1.358.176-.228.231-.301.57-.281.886" class="D"/><path d="M12.69 7.933c.028.45.241.905.632 1.159.431.281 1.051.265 1.467-.036s.597-.866.429-1.337c-.139-.39-.489-.691-.889-.848-.449-.176-1.025-.161-1.358.176-.228.231-.301.57-.281.886z" class="B E"/><path d="M13.334 11.419c-.146-.046-.323-.055-.466-.005-.158.054-.253.179-.226.297s.175.217.351.237a.72.72 0 0 0 .41-.081c.128-.069.216-.186.164-.291-.035-.072-.13-.124-.232-.156" class="D"/><path d="M13.334 11.419c-.146-.046-.323-.055-.466-.005-.158.054-.253.179-.226.297s.175.217.351.237a.72.72 0 0 0 .41-.081c.128-.069.216-.186.164-.291-.035-.072-.13-.124-.232-.156z" class="B E"/><path d="M15.562 13.966c.184.138.454.105.607-.074a.61.61 0 0 0 .042-.685l-.317-.003c-.193.193-.315.473-.332.762" class="D"/><path d="M15.562 13.966c.184.138.454.105.607-.074a.61.61 0 0 0 .042-.685l-.317-.003c-.193.193-.315.473-.332.762z" class="B E"/></g></svg>