<svg xmlns="http://www.w3.org/2000/svg" width="56" height="56" xmlns:v="https://vecta.io/nano"><defs><linearGradient x1="86.5058322%" y1="5.48506229%" x2="9.74212447%" y2="99.0434767%" id="A"><stop stop-color="#ffd985" offset="3%"/><stop stop-color="#50c1b2" offset="34%"/><stop stop-color="#5a5eaa" offset="100%"/></linearGradient><linearGradient x1="113.664947%" y1="43.2498781%" x2="-1.02881447%" y2="60.1493811%" id="B"><stop stop-color="#8bcead" offset="3%"/><stop stop-color="#3c9aa3" offset="41%"/><stop stop-color="#37469b" offset="100%"/></linearGradient><linearGradient x1="122.52505%" y1="40.7188922%" x2="1.9238477%" y2="55.7659072%" id="C"><stop stop-color="#8bcead" offset="3%"/><stop stop-color="#3b729f" offset="41%"/><stop stop-color="#37469b" offset="100%"/></linearGradient><linearGradient x1="115.455382%" y1="38.253935%" x2="-8.96964121%" y2="61.8139032%" id="D"><stop stop-color="#ffd985" offset="3%"/><stop stop-color="#39a498" offset="45%"/><stop stop-color="#3c4fa2" offset="100%"/></linearGradient><linearGradient x1="88.9530938%" y1="31.391889%" x2="-21.83582%" y2="74.9920891%" id="E"><stop stop-color="#ffd985" offset="0%"/><stop stop-color="#38b8a6" offset="34%"/><stop stop-color="#5a5eaa" offset="86%"/></linearGradient><linearGradient x1="93.0867007%" y1="38.6851417%" x2="3.19728174%" y2="67.8219143%" id="F"><stop stop-color="#ffd985" offset="0%"/><stop stop-color="#39afa1" offset="30%"/><stop stop-color="#4c55a5" offset="100%"/></linearGradient><linearGradient x1="52.294686%" y1="44.9262733%" x2="-37.1980676%" y2="69.8815655%" id="G"><stop stop-color="#ffd985" offset="0%"/><stop stop-color="#39afa1" offset="30%"/><stop stop-color="#4c55a5" offset="100%"/></linearGradient><linearGradient x1="34.5328037%" y1="2.51327847%" x2="55.930975%" y2="93.0293835%" id="H"><stop stop-color="#fff" offset="8%"/></linearGradient><linearGradient x1="98.4304933%" y1="40.0969253%" x2="9.19282511%" y2="62.3328063%" id="I"><stop stop-color="#fff" offset="8%"/></linearGradient><linearGradient x1="97.3372781%" y1="44.4597528%" x2="8.28402367%" y2="66.8229404%" id="J"><stop stop-color="#fff" offset="8%"/></linearGradient></defs><g fill="none" fill-rule="evenodd"><g fill="#fff"><circle fill-opacity=".05" cx="28" cy="28" r="28"/><circle fill-opacity=".05" cx="29.273" cy="28" r="24.182"/></g><g transform="translate(8.909 7.636)" fill-rule="nonzero"><path d="M39.781 21.228v.091c0 .453-.075.89-.136 1.327a14.39 14.39 0 0 1-.302 1.644c0 .211-.106.422-.151.634a19.61 19.61 0 0 1-1.961 4.797 18.1 18.1 0 0 1-1.373 2.112l-.845 1.041h0c-.377.453-.799.875-1.207 1.282a19.85 19.85 0 0 1-30.425-3.243c-.221-.302-.447-.664-.679-1.086-.391-.64-.729-1.311-1.011-2.006a2.85 2.85 0 0 1-.151-.377l-.528-1.433a17.42 17.42 0 0 1-.558-2.112c-.094-.413-.164-.831-.211-1.252-.109-.603-.179-1.213-.211-1.825a19.4 19.4 0 0 1 0-2.293v-.543c.045-.557.12-1.111.226-1.659a13.65 13.65 0 0 1 .362-1.508 18.25 18.25 0 0 1 2.097-5.023c.228-.411.48-.809.754-1.192 2.234-3.253 5.384-5.768 9.051-7.225A18.93 18.93 0 0 1 17.049.186a19.76 19.76 0 0 1 13.485 3.017l.407.256a16.17 16.17 0 0 1 1.614 1.222l.362.136a19.61 19.61 0 0 1 4.827 6.124c.274.545.521 1.104.739 1.674a18.1 18.1 0 0 1 .588 1.735 20.03 20.03 0 0 1 .709 6.878z" fill="url(#A)"/><path d="M39.781 21.228v.091c0 .453-.075.89-.136 1.327a12.25 12.25 0 0 0-7.678-1.403c-9.729 1.418-19.066 6.034-25.01 5.868a17.95 17.95 0 0 1-5.943-1.101 17.42 17.42 0 0 1-.558-2.112c-.092-.413-.163-.831-.211-1.252 1.987.438 4.046.438 6.034 0 4.797-.965 9.051-4.933 15.733-7.436a37.35 37.35 0 0 1 16.276-2.67h.181c1.076 2.763 1.524 5.731 1.312 8.688h0z" fill="url(#B)"/><path d="M39.328 24.29c0 .211-.106.422-.151.618-.764 2.94-2.193 5.665-4.178 7.964h0c-.377.453-.799.875-1.207 1.282a22.16 22.16 0 0 1-10.649 1.87c-8.025-.558-15.793-2.851-19.76-5.114-.221-.302-.447-.664-.679-1.086-.385-.644-.722-1.314-1.011-2.006 0 0 9.654 4.148 16.442 3.484 9.594-.905 12.746-4.118 17.754-6.034a13.91 13.91 0 0 1 3.439-.98h0z" fill="url(#C)"/><path d="M32.917 4.816c-3.716.711-7.285 2.042-10.559 3.937-3.62 2.097-9.081 8.477-16.034 10.106-2.104.487-4.313.176-6.2-.875.045-.557.12-1.111.226-1.659.106-.528.211-1.041.362-1.508 1.219-.125 2.447-.125 3.665 0 1.508.256 9.714-4.043 15.205-6.803 3.716-1.763 7.546-3.275 11.464-4.525a16.17 16.17 0 0 1 1.614 1.222l.256.106z" fill="url(#D)"/><path d="M32.661 4.575c-2.413 0-8.085.89-15.084 6.29-7.271 5.581-12.067 7.361-15.507 6.426-.622-.195-1.194-.524-1.674-.965a19.61 19.61 0 0 1 3.183-7.768c.668 1.313 2.061 2.093 3.53 1.976 2.791-.136 8.417-1.87 14.089-4.721 2.946-1.527 6.166-2.455 9.473-2.73a17.92 17.92 0 0 1 1.991 1.493z" fill="url(#E)"/><path d="M39.781 21.228v.091c-2.621-.988-5.43-1.375-8.221-1.131-9.428.845-18.523 5.43-24.225 5.325-2.391-.004-4.749-.556-6.893-1.614a18.66 18.66 0 0 1-.377-3.017c2.142.685 4.429.784 6.622.287 4.616-.98 8.658-4.948 15.084-7.542 4.939-2.104 10.298-3.034 15.657-2.715h.317a20.03 20.03 0 0 1 2.036 10.318h0z" fill="url(#F)"/><path d="M39.253 24.924a19.85 19.85 0 0 1-4.178 7.949h0c-3.636 1.929-7.761 2.738-11.856 2.323-9.051-.634-17.03-3.379-20.424-5.385-.385-.644-.722-1.314-1.011-2.006 5.112 2.076 10.613 3.023 16.125 2.775 9.578-.558 12.716-2.368 17.467-4.193l3.877-1.463z" fill="url(#G)"/><path d="M35.844 31.832l-.845 1.041h0c-.377.453-.799.875-1.207 1.282a19.85 19.85 0 0 1-30.41-3.243c-.221-.302-.447-.664-.679-1.086-.391-.64-.729-1.311-1.011-2.006a2.85 2.85 0 0 1-.151-.377l-.528-1.433a17.42 17.42 0 0 1-.558-2.112c-.094-.413-.164-.831-.211-1.252-.109-.603-.179-1.213-.211-1.825a19.4 19.4 0 0 1 0-2.293v-.543c.045-.557.12-1.111.226-1.659a13.65 13.65 0 0 1 .362-1.508 18.25 18.25 0 0 1 2.097-5.023c.228-.411.48-.809.754-1.192 2.234-3.253 5.384-5.768 9.051-7.225A18.93 18.93 0 0 1 17.049.186a5.04 5.04 0 0 1-.196 4.389C14.515 8.693 7.093 10.85 4.846 15.828c-.657 1.396-1.061 2.898-1.192 4.435-.157 1.822-.01 3.657.437 5.43a15.58 15.58 0 0 0 8.538 9.88 20.44 20.44 0 0 0 13.168 1.192c3.683-.85 7.121-2.538 10.046-4.933z" fill="url(#H)" opacity=".34"/><ellipse fill="url(#I)" opacity=".41" transform="matrix(.15833 -.987386 .987386 .15833 .376883 50.2743)" cx="29.678" cy="24.916" rx="6.728" ry="6.139"/><ellipse fill="url(#J)" opacity=".33" transform="matrix(.15833 -.987386 .987386 .15833 -14.102276 46.409423)" cx="20.171" cy="31.477" rx="2.549" ry="2.323"/></g></g></svg>