<svg xmlns="http://www.w3.org/2000/svg" width="87" height="85" xmlns:v="https://vecta.io/nano"><defs><linearGradient x1="87.4337616%" y1="87.3700788%" x2="12.9480347%" y2="13.238211%" id="A"><stop stop-color="#74459b" offset="8%"/><stop stop-color="#c6549f" offset="54%"/><stop stop-color="#fbf28c" offset="100%"/></linearGradient><linearGradient x1="25.6282955%" y1="119.864159%" x2="69.5415439%" y2="-35.8553732%" id="B"><stop stop-color="#f171ab" offset="0%"/><stop stop-color="#fcc29c" offset="100%"/></linearGradient><linearGradient x1="24.8069736%" y1="121.34809%" x2="69.6656396%" y2="-36.0838798%" id="C"><stop stop-color="#ef5395" offset="0%"/><stop stop-color="#f9aa7c" offset="100%"/></linearGradient><linearGradient x1="25.9411129%" y1="69.3349246%" x2="67.2257073%" y2="21.1323954%" id="D"><stop stop-color="#f171ab" offset="0%"/><stop stop-color="#fcc29c" offset="100%"/></linearGradient><linearGradient x1="26.9490227%" y1="66.1175975%" x2="68.8126805%" y2="32.7932391%" id="E"><stop stop-color="#ef5395" offset="0%"/><stop stop-color="#f9aa7c" offset="100%"/></linearGradient><linearGradient x1="47.7801127%" y1="106.676527%" x2="48.7294087%" y2="-29.2324091%" id="F"><stop stop-color="#d8559f" offset="0%"/><stop stop-color="#f8a07a" offset="100%"/></linearGradient><linearGradient x1="49.0788423%" y1="71.5394096%" x2="50.3365053%" y2="-75.7707069%" id="G"><stop stop-color="#cf4287" offset="0%"/><stop stop-color="#f6907e" offset="100%"/></linearGradient><linearGradient x1="73.5550163%" y1="69.1632938%" x2="21.323872%" y2="28.1072556%" id="H"><stop stop-color="#8b469b" offset="8%"/><stop stop-color="#c9519e" offset="100%"/></linearGradient><linearGradient x1="73.759666%" y1="60.7114938%" x2="21.6284504%" y2="31.3035165%" id="I"><stop stop-color="#7e298b" offset="0%"/><stop stop-color="#b74e9d" offset="89%"/></linearGradient><linearGradient x1="74.9633613%" y1="111.172507%" x2="-14.0668782%" y2="-110.74136%" id="J"><stop stop-color="#99489b" offset="8%"/><stop stop-color="#db5aa1" offset="100%"/></linearGradient><linearGradient x1="75.2454948%" y1="95.7379373%" x2="-14.1198206%" y2="-90.4516764%" id="K"><stop stop-color="#732d91" offset="0%"/><stop stop-color="#b74e9d" offset="89%"/></linearGradient><linearGradient x1="73.0020788%" y1="83.4067277%" x2="9.61302405%" y2="-31.7416602%" id="L"><stop stop-color="#90479b" offset="0%"/><stop stop-color="#b74e9d" offset="89%"/></linearGradient><linearGradient x1="72.5756574%" y1="78.1959317%" x2="9.16035387%" y2="-26.7441296%" id="M"><stop stop-color="#832990" offset="0%"/><stop stop-color="#b74e9d" offset="89%"/></linearGradient><linearGradient x1="52.5658082%" y1="76.159613%" x2="37.2086923%" y2="-90.3936731%" id="N"><stop stop-color="#95489b" offset="8%"/><stop stop-color="#d9559f" offset="100%"/></linearGradient><linearGradient x1="52.4648847%" y1="70.4869929%" x2="37.0814684%" y2="-77.5077065%" id="O"><stop stop-color="#853293" offset="0%"/><stop stop-color="#b74e9d" offset="89%"/></linearGradient><linearGradient x1="41.0995001%" y1="94.1683222%" x2="85.9208902%" y2="-137.832093%" id="P"><stop stop-color="#713393" offset="0%"/><stop stop-color="#81469b" offset="100%"/></linearGradient><linearGradient x1="47.2638346%" y1="92.5109485%" x2="59.5975997%" y2="-144.922789%" id="Q"><stop stop-color="#5e2875" offset="0%"/><stop stop-color="#874c9e" offset="89%"/></linearGradient><linearGradient x1="72.2940517%" y1="88.9269831%" x2="22.769688%" y2="-5.43354851%" id="R"><stop stop-color="#6e4099" offset="0%"/><stop stop-color="#93459a" offset="88%"/></linearGradient><linearGradient x1="69.1627911%" y1="72.8594196%" x2="6.68908169%" y2="-33.1782824%" id="S"><stop stop-color="#702b8a" offset="0%"/><stop stop-color="#96469a" offset="89%"/></linearGradient><linearGradient x1="21.5232087%" y1="9.54001979%" x2="91.9723136%" y2="76.6983971%" id="T"><stop stop-color="#fbeaf3" offset="0%"/><stop stop-color="#f6dfed" offset="100%"/></linearGradient><linearGradient x1="37.3308038%" y1="-0.548148799%" x2="63.025778%" y2="100.819683%" id="U"><stop stop-color="#fbeaf3" offset="0%"/><stop stop-color="#f6dfed" offset="100%"/></linearGradient></defs><g transform="translate(-.977 -1)"><ellipse fill="#fff" opacity=".05" transform="matrix(.02007 -.999799 .999799 .02007 .170553 86.738539)" cx="44.334" cy="43.282" rx="36.047" ry="36.798"/><path d="M77.047 43.876c-.379 17.663-15.327 31.683-33.391 31.318s-32.408-14.976-32.04-32.639 15.306-31.692 33.371-31.339c18.056.408 32.383 15.003 32.06 32.66h0z" fill="url(#A)"/><path d="M22.487 33.332c2.479.415 5.349-4.981 6.266-6.642a3.83 3.83 0 0 0 .543-1.461 1.48 1.48 0 0 0-.577-1.362c-.561-.277-1.215-.307-1.8-.083l-1.138.282c-1.695.311-3.216 1.214-4.279 2.54-.866 1.362-1.46 6.326.985 6.725z" fill="url(#B)"/><path d="M23.183 27.886c1.445-1.846 3.74-2.863 6.113-2.706.05-.51-.167-1.01-.577-1.328-.561-.277-1.215-.307-1.8-.083l-1.138.282c-1.695.311-3.216 1.214-4.279 2.54-.849 1.345-1.426 6.06.815 6.642-.452-1.824-.14-3.748.866-5.346h0z" fill="url(#C)"/><path d="M38.143 19.917l-.102-.1c-.204-.153-.443-.256-.696-.299-1.289-.401-2.694-.225-3.838.482-.289.216-.56.565-.442.897.077.169.208.309.374.398.499.357 1.084.58 1.698.648.342-.018.68-.085 1.002-.199.543-.183 1.053-.482 1.579-.714.272-.116.577-.266.662-.565a.61.61 0 0 0-.238-.548h0z" fill="url(#D)"/><path d="M33.185 21.079a2.17 2.17 0 0 1 1.206-.631c1.281-.266 2.607-.232 3.872.1v-.083c.044-.196-.013-.401-.153-.548l-.102-.1c-.204-.153-.443-.256-.696-.299-1.289-.401-2.694-.225-3.838.482-.289.216-.56.565-.442.897a.35.35 0 0 0 .153.183h0z" fill="url(#E)"/><path d="M16.391 45.603c.333.778.88 1.45 1.579 1.943.114.092.26.14.408.133.306 0 .475-.315.594-.598.143-.356.256-.722.34-1.096a3.98 3.98 0 0 0 0-1.843c-.176-.601-.61-1.097-1.189-1.362-.592-.237-1.272-.084-1.698.382-.255.345-.364.773-.306 1.195.026.426.118.846.272 1.245h0z" fill="url(#F)"/><path d="M17.358 46.483c-.357-.847-.526-1.843.391-2.424.378-.235.83-.329 1.274-.266-.211-.42-.565-.755-1.002-.946-.592-.237-1.272-.084-1.698.382-.255.345-.364.773-.306 1.195a4.2 4.2 0 0 0 .391 1.179c.303.666.749 1.26 1.308 1.743-.102-.299-.238-.581-.357-.863z" fill="url(#G)"/><path d="M53.274 24.831v.266c-.183 1.421.386 2.835 1.511 3.752 3.006 3.171 8.253 2.673 11.887.863.883-.415 1.698-1.179 1.698-2.125a2.45 2.45 0 0 0-1.223-1.561c-2.715-1.912-5.945-3.003-9.289-3.138-.921-.069-1.846.05-2.717.349a3.19 3.19 0 0 0-1.868 1.594h0z" fill="url(#H)"/><path d="M68.336 27.587a2.45 2.45 0 0 0-1.223-1.561l-1.308-.83c.129 1.385-.573 2.718-1.8 3.42-2.101 1.106-4.603 1.21-6.792.282-1.615-.842-2.996-2.056-4.025-3.537-.032 1.331.54 2.608 1.562 3.487 3.006 3.171 8.253 2.673 11.887.863.917-.332 1.817-1.179 1.698-2.125z" fill="url(#I)"/><path d="M54.972 37.334c2.275-.1 2.343-3.022.594-4.101-1.138-.714-3.804-.996-3.872.88.019.686.284 1.344.747 1.86a3.25 3.25 0 0 0 2.157 1.362h.374z" fill="url(#J)"/><path d="M55.855 33.449a1.81 1.81 0 0 1 0 1.909 2.02 2.02 0 0 1-2.683.315c-.643-.406-1.155-.982-1.477-1.66v.083c.019.686.284 1.344.747 1.86a3.25 3.25 0 0 0 2.157 1.362h.374c2.106-.083 2.309-2.64.883-3.869z" fill="url(#K)" opacity=".66"/><path d="M31.096 52.493c3.107 3.302 7.022 5.776 11.377 7.189.826.335 1.726.461 2.615.365a4.29 4.29 0 0 0 1.698-.764c2.013-1.751 3.234-4.211 3.396-6.841.34-2.391 0-3.985-2.14-5.313a16.98 16.98 0 0 0-13.84-1.046c-1.244.331-2.379.972-3.294 1.86-.908.929-1.186 2.288-.713 3.487a4.89 4.89 0 0 0 .9 1.063h0z" fill="url(#L)"/><path d="M48.179 47.13c-.435-.25-.882-.477-1.342-.681 1.844 2.201 2.048 5.306.509 7.721-2.53 4.251-5.96 2.242-9.798.216a18.73 18.73 0 0 1-7.047-5.678 2.98 2.98 0 0 0-.17 2.723c.215.388.484.745.798 1.063 3.107 3.302 7.022 5.776 11.377 7.189.826.335 1.726.461 2.615.365a4.29 4.29 0 0 0 1.698-.764c2.013-1.751 3.234-4.211 3.396-6.841.408-2.391.119-3.985-2.038-5.313z" fill="url(#M)"/><path d="M25.102 64.531a2.33 2.33 0 0 0 3.091-.166 2.99 2.99 0 0 0 .645-1.096c.219-.526.277-1.102.17-1.66-.234-.833-1.019-1.401-1.902-1.378-.766-.023-1.529.107-2.242.382-.73.282-1.494.847-1.494 1.66.025.386.167.756.408 1.063a4.33 4.33 0 0 0 1.325 1.195h0z" fill="url(#N)"/><path d="M29.008 61.575c-.075-.332-.253-.633-.509-.863.212.994-.228 2.012-1.104 2.557-1.497.518-3.162-.047-4.008-1.362-.008.077-.008.155 0 .232.025.386.167.756.408 1.063a4.32 4.32 0 0 0 1.325 1.262 2.33 2.33 0 0 0 3.091-.166 2.99 2.99 0 0 0 .645-1.096c.206-.518.259-1.082.153-1.627h0z" fill="url(#O)"/><path d="M51.457 70.89c.238.349.679.482 1.477.266 2.921-.764 4.551-3.138 6.249-5.38a11.86 11.86 0 0 0 1.358-2.075 2.33 2.33 0 0 0 .238-1.013c-.119-1.81-2.989-1.295-3.957-.648a9.5 9.5 0 0 0-1.834 1.743c-.94.979-1.808 2.023-2.598 3.122-.56.797-1.528 3.038-.934 3.985z" fill="url(#P)"/><path d="M54.208 69.512c-1.902.365-2.208-.98-1.936-2.457-.56.963-1.358 2.955-.815 3.769.238.349.679.482 1.477.266 2.921-.764 4.551-3.138 6.249-5.38a11.86 11.86 0 0 0 1.358-2.075 2.33 2.33 0 0 0 .238-1.013 1.13 1.13 0 0 0-.272-.681c-.442.946-4.534 7.289-6.3 7.571z" fill="url(#Q)"/><path d="M63.258 54.087c.384.754 1.107 1.288 1.953 1.445a2.83 2.83 0 0 0 1.868-.83c1.481-1.262 2.643-2.842 3.396-4.616.68-1.256.743-2.745.17-4.051a4.4 4.4 0 0 0-1.426-1.411 8.92 8.92 0 0 0-4.245-1.528 3.64 3.64 0 0 0-1.936.216 3.94 3.94 0 0 0-1.851 3.653c-.074 2.526.649 5.013 2.072 7.123z" fill="url(#R)"/><path d="M70.662 45.984a4.4 4.4 0 0 0-1.426-1.411l-.289-.183a7.64 7.64 0 0 1 .577 2.54c.102 2.092-1.358 5.214-3.974 4.981s-3.838-3.47-4.143-6.392c-.118.462-.186.935-.204 1.411-.079 2.524.638 5.011 2.055 7.123.384.754 1.107 1.288 1.953 1.445a2.83 2.83 0 0 0 1.868-.83c1.481-1.262 2.643-2.842 3.396-4.616.691-1.258.76-2.755.187-4.068h0z" fill="url(#S)"/><path d="M77.047 43.876c-.26 12.62-8.062 23.92-19.936 28.874 10.8-8.85 20.496-20.871 12.872-40.962-3.396-8.999-13.466-16.072-23.875-9.813-5.774 3.454-11.768 12.453-19.172 12.187-3.273-.253-6.103-2.329-7.268-5.33-.819-1.923-.991-4.051-.492-6.077 8.893-10.452 23.571-14.268 36.598-9.513s21.559 17.04 21.273 30.633z" fill="url(#T)" opacity=".27"/><ellipse fill="url(#U)" opacity=".51" transform="matrix(.928291 -.371854 .371854 .928291 -16.401603 13.225702)" cx="26.091" cy="49.139" rx="7.601" ry="9.111"/><ellipse fill="#fff" opacity=".05" transform="matrix(.019996 -.9998 .9998 .019996 .347722 86.80189)" cx="44.452" cy="43.224" rx="42.166" ry="43.038"/></g></svg>